inDegrees=yes
name=ik_lifting_orientations
DataType=double
version=3
OpenSimVersion=4.5-2024-01-10-34fd6af
endheader
time	pelvis_tilt	pelvis_list	pelvis_rotation	pelvis_tx	pelvis_ty	pelvis_tz	hip_flexion_r	hip_adduction_r	hip_rotation_r	knee_angle_r	knee_angle_r_beta	ankle_angle_r	subtalar_angle_r	mtp_angle_r	hip_flexion_l	hip_adduction_l	hip_rotation_l	knee_angle_l	knee_angle_l_beta	ankle_angle_l	subtalar_angle_l	mtp_angle_l	lumbar_extension	lumbar_bending	lumbar_rotation	arm_flex_r	arm_add_r	arm_rot_r	elbow_flex_r	pro_sup_r	wrist_flex_r	wrist_dev_r	arm_flex_l	arm_add_l	arm_rot_l	elbow_flex_l	pro_sup_l	wrist_flex_l	wrist_dev_l
0.97	0.001605649486463227	28.237796644513	-90.00167011715799	0	0.9399999998679526	0	44.99327933331173	-10.55601968169024	0	59.99711998830387	1.047147285510004	-5.203462339367667	0	0	44.99327933331173	-10.55601968169024	0	59.99711998830387	1.047147285510004	-5.203462339367667	0	0	69.38903381556781	-8.305433993282259	-3.336503353608701	-36.92490493588077	8.400204312465384	19.84967365053359	24.95393037026038	1.956887062964981	0	0	0	-11.15478605007458	0	88.08183101726789	1.956887062964981	0	0
0.98	0.03460886298799213	27.2774256409074	-90.02067147940724	0	0.9399999998679526	0	44.99344270450257	-10.52580985535585	0	59.99719376756089	1.047148573200959	-5.190583006599832	0	0	44.99344270450257	-10.52580985535585	0	59.99719376756089	1.047148573200959	-5.190583006599832	0	0	66.84674856442736	-7.987287682393668	-3.260237669036439	-35.49537271576553	7.978639198279882	19.72816168362252	27.22939254951114	1.920063628648344	0	0	0	-11.21264001331118	0	88.1179223344582	1.920063628648344	0	0
0.99	0.0006276777071491849	27.28344824323889	-90.00009636790314	0	0.9399999998679526	0	44.99344543984125	-10.52504108429759	0	59.99719472996888	1.047148589998147	-5.190219386927104	0	0	44.99344543984125	-10.52504108429759	0	59.99719472996888	1.047148589998147	-5.190219386927104	0	0	66.85216459005166	-7.954049261396783	-3.325373991600631	-35.9547391896451	8.046309407846666	20.95940942759263	28.81989838453642	1.91950665597317	0	0	0	-11.21344840810781	0	88.11846822884316	1.91950665597317	0	0
1	0.006460755036868906	26.03275410906299	-89.99370452696468	0	0.9399999998679526	0	44.99345467362919	-10.52247669002606	0	59.99719799362617	1.047148646959712	-5.189011111445897	0	0	44.99345467362919	-10.52247669002606	0	59.99719799362617	1.047148646959712	-5.189011111445897	0	0	64.05863665924646	-7.612668458019343	-3.308816320724765	-34.68166195763763	7.24968947723654	21.4329420489986	30.10477642810253	1.917622339315127	0	0	0	-11.2161875869553	0	88.12031506643628	1.917622339315127	0	0
1.01	0.01495323648903388	26.02424137044416	-89.99325827557254	0	0.9399999998679526	0	44.99351566743307	-10.51136089964471	0	59.99722530552434	1.047149123642261	-5.184297526731807	0	0	44.99351566743307	-10.51136089964471	0	59.99722530552434	1.047149123642261	-5.184297526731807	0	0	64.0471568397468	-7.633369629714391	-3.292388183318639	-34.90052990048864	6.819601050864908	21.70075437564777	32.46318841637124	1.903846389186908	0	0	0	-11.23785791369648	0	88.1338171270969	1.903846389186908	0	0
1.02	0.02940920364182597	24.77001418199283	-90.01955939900087	0	0.9399999998679526	0	44.99360611511347	-10.49452036017645	0	59.99726584711946	1.047149831226579	-5.177077704025759	0	0	44.99360611511347	-10.49452036017645	0	59.99726584711946	1.047149831226579	-5.177077704025759	0	0	61.30002409731886	-7.292979774511526	-3.236131101621606	-33.78833531817388	6.884830309356346	22.18656361335248	34.6909309547933	1.883446400441546	0	0	0	-11.26993370571691	0	88.15381152803249	1.883446400441546	0	0
1.03	-0.001285300855992182	23.76421452227592	-90.00104675472873	0	0.9399999998679526	0	44.9936369025128	-10.4886455156377	0	59.99727945122491	1.047150068663011	-5.174538899224636	0	0	44.9936369025128	-10.4886455156377	0	59.99727945122491	1.047150068663011	-5.174538899224636	0	0	61.54368159249532	-7.557688826020448	-3.301258716569871	-35.52642874961672	6.99842157309874	23.84793731897332	36.91349813921006	1.876533135161882	0	0	0	-11.2807697196412	0	88.16058734311471	1.876533135161882	0	0
1.04	-0.006243359960900864	23.76060102683438	-90.00592721072516	0	0.9399999998679526	0	44.99378381150817	-10.4635786082261	0	59.99734579836925	1.047151226639129	-5.164133628623867	0	0	44.99378381150817	-10.4635786082261	0	59.99734579836925	1.047151226639129	-5.164133628623867	0	0	60.07524172372884	-7.230002626517406	-3.26815491174371	-35.17725183622425	5.979240876152188	23.86297173156266	40.33957672835238	1.842974665871501	0	0	0	-11.33396735305525	0	88.19347863918182	1.842974665871501	0	0
1.05	0.035139527207114	22.46800650804359	-90.0135450720889	0	0.9399999998679526	0	44.99378549047408	-10.46314280598714	0	59.99734639271506	1.047151237012421	-5.163932533234759	0	0	44.99378549047408	-10.46314280598714	0	59.99734639271506	1.047151237012421	-5.163932533234759	0	0	58.77135279394574	-7.25966456487832	-3.223768209455115	-35.25410582219232	5.682783937294485	24.57822404420057	42.14359184800168	1.84262777406466	0	0	0	-11.3344760022053	0	88.19381863185522	1.84262777406466	0	0
1.06	0.0002840030471399923	22.47729498769008	-89.99834580966946	0	0.9399999998679526	0	44.99388503937253	-10.44613200810205	0	59.99739126837581	1.047152020240455	-5.156847243304146	0	0	44.99388503937253	-10.44613200810205	0	59.99739126837581	1.047152020240455	-5.156847243304146	0	0	57.35863120702776	-6.914365308117858	-3.234016851017147	-34.23806736459192	4.968345942666613	25.17344550016119	44.87499887925554	1.819854943821227	0	0	0	-11.37062388990165	0	88.21613871965896	1.819854943821227	0	0
1.07	0.003327235572236779	22.47708335335046	-89.99752099479828	0	0.9399999998679526	0	44.99392673974423	-10.43860792502607	0	59.99740961079039	1.047152340375982	-5.153656552071637	0	0	44.99392673974423	-10.43860792502607	0	59.99740961079039	1.047152340375982	-5.153656552071637	0	0	57.35508176189093	-6.921634549170393	-3.227529576268445	-34.36802863845016	5.052600396918762	25.64619096595731	49.62806567286832	1.810406633043488	0	0	0	-11.38552100418684	0	88.22539918414299	1.810406633043488	0	0
1.08	-0.0003867100766040807	21.41395654681281	-89.99956846578736	0	0.9399999998679526	0	44.99392953580328	-10.43790150108491	0	59.99741059662716	1.047152357582079	-5.153333701669411	0	0	44.99392953580328	-10.43790150108491	0	59.99741059662716	1.047152357582079	-5.153333701669411	0	0	54.8901960829533	-6.606001490043061	-3.184197696656553	-33.24793528672782	5.127182838524369	26.28028115971353	51.76262425939398	1.809826724477778	0	0	0	-11.38637327895015	0	88.22596755954038	1.809826724477778	0	0
1.09	-0.004024505979766263	21.41176738811761	-90.0054999094271	0	0.9399999998679526	0	44.99397672961525	-10.42946392824635	0	59.99743133406566	1.04715271951866	-5.149768146249121	0	0	44.99397672961525	-10.42946392824635	0	59.99743133406566	1.04715271951866	-5.149768146249121	0	0	54.8917922441162	-6.603984615325552	-3.187346173392986	-33.82030720858315	4.536970373227718	27.67211168113072	57.27199088298553	1.799120002604105	0	0	0	-11.40326810417822	0	88.23646141697371	1.799120002604105	0	0
1.1	-0.003100189945957706	21.40987134347602	-89.99807919095734	0	0.9399999998679526	0	44.99397996799177	-10.42865622190738	0	59.99743247606817	1.047152739450363	-5.149400709073523	0	0	44.99397996799177	-10.42865622190738	0	59.99743247606817	1.047152739450363	-5.149400709073523	0	0	53.51728986960045	-6.308243733376774	-3.135461171369735	-33.70290017685949	3.951075594190564	28.23922107863312	60.55909389436095	1.798447020990466	0	0	0	-11.40425845212421	0	88.23712101454218	1.798447020990466	0	0
1.11	-4.590985392113049e-05	20.10631520251027	-90.00037583910442	0	0.9399999998679526	0	44.99403127747966	-10.4199202433275	0	59.99745544299096	1.047153140298785	-5.145760607271425	0	0	44.99403127747966	-10.4199202433275	0	59.99745544299096	1.047153140298785	-5.145760607271425	0	0	52.21245930641078	-6.307565556674172	-3.135672710192291	-34.40231135301197	3.481382075839184	29.55735700245828	64.61846864338821	1.786692595697029	0	0	0	-11.42293708748495	0	88.24864175337096	1.786692595697029	0	0
1.12	0.0006305187221782946	20.31087320337681	-90.01099895713341	0	0.9399999998679526	0	44.99403849544412	-10.41815973219491	0	59.99745799730908	1.047153184880047	-5.144965741080365	0	0	44.99403849544412	-10.41815973219491	0	59.99745799730908	1.047153184880047	-5.144965741080365	0	0	51.07765673759238	-6.012429163428801	-3.070252200855354	-34.30998047154379	2.11738070190214	30.19328136267044	68.42377733104296	1.7851869629624	0	0	0	-11.42515838762522	0	88.25011744308881	1.7851869629624	0	0
1.13	0.002235730659189512	20.32213253469502	-90.00128364607086	0	0.9399999998679526	0	44.99408220008285	-10.41085309797315	0	59.99747756816366	1.047153526455896	-5.141941488637841	0	0	44.99408220008285	-10.41085309797315	0	59.99747756816366	1.047153526455896	-5.141941488637841	0	0	51.09025031848477	-6.018181207001807	-3.074549471820686	-34.63604793773347	1.233937686837011	31.31314977408336	72.1003230031054	1.775147161270479	0	0	0	-11.44114092982514	0	88.25995764793697	1.775147161270479	0	0
1.14	0.001405049597706046	18.99035873505662	-90.00165179584521	0	0.9399999998679526	0	44.99418985095039	-10.39344681594878	0	59.99752574202306	1.047154367248356	-5.134836089865551	0	0	44.99418985095039	-10.39344681594878	0	59.99752574202306	1.047154367248356	-5.134836089865551	0	0	49.69712657770741	-6.003456866708484	-3.072754808622305	-35.89071613417475	0.0254239040309394	31.90387605135111	76.88714093686498	1.750316985963911	0	0	0	-11.48076360915507	0	88.28429419113861	1.750316985963911	0	0
